<svg width="20" height="20" viewBox="0 0 20 20" fill="none" xmlns="http://www.w3.org/2000/svg">
<path d="M15 6.66658H14.1667V4.99992C14.1667 2.69992 12.3 0.833252 10 0.833252C7.70004 0.833252 5.83337 2.69992 5.83337 4.99992V6.66658H5.00004C4.08337 6.66658 3.33337 7.41658 3.33337 8.33325V16.6666C3.33337 17.5833 4.08337 18.3333 5.00004 18.3333H15C15.9167 18.3333 16.6667 17.5833 16.6667 16.6666V8.33325C16.6667 7.41658 15.9167 6.66658 15 6.66658ZM10 14.1666C9.08337 14.1666 8.33337 13.4166 8.33337 12.4999C8.33337 11.5833 9.08337 10.8333 10 10.8333C10.9167 10.8333 11.6667 11.5833 11.6667 12.4999C11.6667 13.4166 10.9167 14.1666 10 14.1666ZM12.5834 6.66658H7.41671V4.99992C7.41671 3.57492 8.57504 2.41659 10 2.41659C11.425 2.41659 12.5834 3.57492 12.5834 4.99992V6.66658Z" fill="#A5B0C1"/>
</svg>
